<?xml version="1.0"?>
<svg id="Layer_1" data-name="Layer 1" xmlns="http://www.w3.org/2000/svg" viewBox="0 0 198.43 198.43">
  <circle fill="#FFDC97" cx="103.99" cy="100.89" r="74.58"></circle>
  <path fill="#B098B4" d="M79.12,84.93s10.35.1,15.31,5.28c4.96,5.18,8.37,10.03,8.94,14.08s-.72,5.74-.72,5.74c0,0-9.22.69-14.76-5.84-5.54-6.53-7.42-7.71-8.2-12.94-.78-5.22-.58-6.32-.58-6.32Z"></path>
  <path fill="#FFFFFF" d="M128.62,84.93s-10.35.1-15.31,5.28-8.37,10.03-8.94,14.08c-.57,4.05.72,5.74.72,5.74,0,0,9.22.69,14.76-5.84,5.54-6.53,7.42-7.71,8.2-12.94.78-5.22.58-6.32.58-6.32Z"></path>
  <path fill="#58585A" d="M129.15,84.23s-.05,0-.08,0c-.02,0-.03,0-.05,0-.06,0-.12,0-.18,0-12.06,0-22.19,8.39-24.87,19.64-2.68-11.25-12.81-19.64-24.87-19.64-.06,0-.12,0-.18,0-.02,0-.03,0-.05,0-.03,0-.05,0-.08,0-13.96.16-25.27,11.56-25.27,25.56s11.47,25.57,25.57,25.57h10.58c.39,0,.7-.31.7-.7s-.31-.7-.7-.7h-10.58c-13.33,0-24.17-10.84-24.17-24.17s10.35-23.66,23.26-24.14c.38,13.65,11.42,24.68,25.07,25.05v23.96c0,.39.31.7.7.7s.7-.31.7-.7v-23.96c13.66-.37,24.69-11.4,25.07-25.05,12.9.48,23.26,11.12,23.26,24.14v24.87c0,.39.31.7.7.7s.7-.31.7-.7v-24.87c0-14-11.31-25.4-25.27-25.56ZM79.61,85.64c12.93.26,23.4,10.73,23.66,23.66-12.88-.37-23.29-10.78-23.66-23.66ZM104.7,109.3c.26-12.93,10.73-23.4,23.66-23.66-.37,12.88-10.78,23.29-23.66,23.66Z"></path>
  <path fill="#58585A" d="M128.85,82.26c-.35,0-.65-.26-.69-.61-1.61-12.04-12.01-21.12-24.17-21.12s-22.56,9.08-24.17,21.12c-.05.38-.4.65-.79.6-.38-.05-.65-.4-.6-.79,1.71-12.73,12.7-22.33,25.56-22.33s23.86,9.6,25.56,22.33c.05.38-.22.74-.6.79-.03,0-.06,0-.09,0Z"></path>
</svg>